<svg width="56" height="56" viewBox="0 0 56 56" fill="none" xmlns="http://www.w3.org/2000/svg">
<rect width="56" height="56" rx="28" fill="#006261"/>
<path d="M27.9439 22.343C29.2003 22.4424 30.4566 21.747 31.2419 20.8653C32.014 19.9588 32.5244 18.7418 32.3935 17.5C31.2811 17.5497 29.907 18.1954 29.1218 19.1019C28.402 19.8843 27.7869 21.1509 27.9439 22.343Z" fill="white"/>
<path d="M29.4478 23.1987C30.2636 22.8947 31.2735 22.5184 32.3803 22.5789C33.087 22.6286 35.1286 22.8272 36.4373 24.6651C36.4313 24.6694 36.418 24.6776 36.3983 24.6897C36.0745 24.8895 34.0177 26.1587 34.0423 28.6637C34.0669 31.6481 36.6289 32.761 36.9642 32.9067C36.986 32.9162 36.9984 32.9215 37 32.9231C36.9986 32.9271 36.996 32.9351 36.9922 32.9468C36.9253 33.1521 36.4846 34.5049 35.4819 35.891C34.5527 37.1824 33.5974 38.4491 32.0793 38.4739C31.3649 38.486 30.8837 38.2887 30.3825 38.0832C29.8555 37.867 29.3065 37.6419 28.4411 37.6419C27.5447 37.6419 26.9705 37.8731 26.4179 38.0956C25.9378 38.2889 25.474 38.4756 24.8291 38.4987C23.3634 38.5484 22.251 37.1327 21.3218 35.8413C19.4242 33.2335 17.9715 28.4898 19.9346 25.286C20.8899 23.6841 22.6305 22.6782 24.5019 22.6534C25.3184 22.6393 26.097 22.9328 26.778 23.1895C27.2977 23.3854 27.7606 23.5599 28.1401 23.5599C28.4783 23.5599 28.9229 23.3943 29.4478 23.1987Z" fill="white"/>
</svg>
