<svg width="24" height="24" viewBox="0 0 24 24" fill="none" xmlns="http://www.w3.org/2000/svg">
<path d="M16.2918 15.168L20.1368 14.1194M12.4468 20.0617L21.1854 17.2653M8.53986 1.10838L14.6069 4.9284C15.9207 5.75557 16.3092 7.49457 15.4723 8.80217L7.21085 21.7107C6.41924 22.9476 4.80572 23.3614 3.51651 22.6582L2.36434 22.0297C2.11921 21.896 1.97716 21.6293 2.00302 21.3513L3.31757 7.21986C3.34261 6.95064 3.52065 6.72001 3.77474 6.62761L6.35138 5.69065C6.86978 5.50214 7.22889 5.02646 7.26819 4.47626L7.47006 1.65017C7.50767 1.12355 8.09308 0.827079 8.53986 1.10838Z" stroke="white" stroke-width="2" stroke-linecap="round" stroke-linejoin="round"/>
</svg>
