<svg width="56" height="56" viewBox="0 0 56 56" fill="none" xmlns="http://www.w3.org/2000/svg">
<rect width="56" height="56" rx="28" fill="#006261"/>
<path d="M38.5762 28.2447C38.5762 27.4961 38.5159 26.7475 38.3955 26.0142H28.1709V30.246H34.0285C33.7876 31.6057 33.0046 32.8279 31.8601 33.5917V36.3416H35.3537C37.4016 34.432 38.5762 31.6057 38.5762 28.2447Z" fill="white"/>
<path d="M28.1713 39C31.0926 39 33.5617 38.0221 35.3537 36.3416L31.8601 33.5917C30.8814 34.2639 29.632 34.646 28.1713 34.646C25.3403 34.646 22.9461 32.7058 22.0877 30.1086H18.4888V32.9502C20.3259 36.6626 24.0754 39 28.1713 39Z" fill="white"/>
<path d="M22.0877 30.1086C21.6359 28.7489 21.6363 27.267 22.0882 25.892V23.0657H18.4886C16.9374 26.167 16.9374 29.8336 18.4886 32.9349L22.0877 30.1086Z" fill="white"/>
<path d="M28.1713 21.3547C29.7223 21.3241 31.2131 21.9199 32.3274 23.0046L35.4294 19.8575C33.4568 17.9937 30.8667 16.9701 28.1713 17.0007C24.0754 17.0007 20.3258 19.3534 18.4886 23.0657L22.0877 25.9073C22.9461 23.2949 25.3403 21.3547 28.1713 21.3547Z" fill="white"/>
</svg>
