<svg width="25" height="24" viewBox="0 0 25 24" fill="none" xmlns="http://www.w3.org/2000/svg">
<path fill-rule="evenodd" clip-rule="evenodd" d="M10.25 9.77947C10.25 9.37918 10.4653 9.00985 10.8137 8.81263C11.162 8.61541 11.5895 8.62079 11.9327 8.82672L15.6336 11.0473C15.9683 11.2481 16.173 11.6097 16.173 12C16.173 12.3903 15.9683 12.7519 15.6336 12.9527L11.9327 15.1733C11.5895 15.3793 11.162 15.3847 10.8136 15.1874C10.4653 14.9902 10.25 14.6208 10.25 14.2205V9.77947Z" stroke="white" stroke-width="2" stroke-linecap="round" stroke-linejoin="round"/>
<path d="M2.75 7.55556C2.75 4.48731 5.23731 2 8.30556 2H17.1944C20.2627 2 22.75 4.48731 22.75 7.55556V16.4444C22.75 19.5127 20.2627 22 17.1944 22H8.30556C5.23731 22 2.75 19.5127 2.75 16.4444V7.55556Z" stroke="white" stroke-width="2" stroke-linecap="round" stroke-linejoin="round"/>
</svg>
